<svg xmlns="http://www.w3.org/2000/svg" xmlns:xlink="http://www.w3.org/1999/xlink" width="1080" zoomAndPan="magnify" viewBox="0 0 810 809.999993" height="1080" preserveAspectRatio="xMidYMid meet" version="1.0"><defs><clipPath id="aefcc4c3f6"><path d="M 8.132812 4.628906 L 801 4.628906 L 801 797 L 8.132812 797 Z M 8.132812 4.628906 " clip-rule="nonzero"/></clipPath></defs><path fill="#9bc9ff" d="M 21.070312 161.792969 L 614.226562 161.792969 L 614.226562 105.199219 C 614.226562 78.835938 592.738281 57.332031 566.390625 57.332031 L 68.902344 57.332031 C 42.558594 57.332031 21.070312 78.835938 21.070312 105.199219 Z M 21.070312 161.792969 " fill-opacity="1" fill-rule="evenodd"/><path fill="#9bc9ff" d="M 106.339844 17.410156 L 130.050781 17.410156 C 136.640625 17.410156 142.011719 22.785156 142.011719 29.378906 L 142.011719 101.960938 C 142.011719 108.550781 136.640625 113.925781 130.050781 113.925781 L 106.339844 113.925781 C 99.753906 113.925781 94.382812 108.550781 94.382812 101.960938 L 94.382812 29.378906 C 94.382812 22.785156 99.753906 17.410156 106.339844 17.410156 Z M 505.246094 17.410156 L 528.957031 17.410156 C 535.542969 17.410156 540.917969 22.785156 540.917969 29.378906 L 540.917969 101.960938 C 540.917969 108.550781 535.542969 113.925781 528.957031 113.925781 L 505.246094 113.925781 C 498.660156 113.925781 493.285156 108.550781 493.285156 101.960938 L 493.285156 29.378906 C 493.285156 22.785156 498.660156 17.410156 505.246094 17.410156 Z M 372.277344 17.410156 L 395.988281 17.410156 C 402.574219 17.410156 407.945312 22.785156 407.945312 29.378906 L 407.945312 101.960938 C 407.945312 108.550781 402.574219 113.925781 395.988281 113.925781 L 372.277344 113.925781 C 365.691406 113.925781 360.320312 108.550781 360.320312 101.960938 L 360.320312 29.378906 C 360.320312 22.785156 365.691406 17.410156 372.277344 17.410156 Z M 239.308594 17.410156 L 263.019531 17.410156 C 269.605469 17.410156 274.980469 22.785156 274.980469 29.378906 L 274.980469 101.960938 C 274.980469 108.550781 269.605469 113.925781 263.019531 113.925781 L 239.308594 113.925781 C 232.722656 113.925781 227.347656 108.550781 227.347656 101.960938 L 227.347656 29.378906 C 227.347656 22.785156 232.722656 17.410156 239.308594 17.410156 Z M 239.308594 17.410156 " fill-opacity="1" fill-rule="evenodd"/><path fill="#9bc9ff" d="M 193.832031 432.296875 L 242.320312 432.296875 C 242.933594 432.296875 243.519531 432.539062 243.953125 432.972656 C 244.386719 433.40625 244.628906 433.992188 244.628906 434.605469 L 244.628906 483.125 C 244.628906 483.738281 244.386719 484.328125 243.953125 484.757812 C 243.519531 485.191406 242.933594 485.433594 242.320312 485.433594 L 193.832031 485.433594 C 193.21875 485.433594 192.632812 485.191406 192.199219 484.757812 C 191.765625 484.328125 191.523438 483.738281 191.523438 483.125 L 191.523438 434.605469 C 191.523438 433.992188 191.765625 433.40625 192.199219 432.972656 C 192.632812 432.539062 193.21875 432.296875 193.832031 432.296875 Z M 94.261719 432.296875 L 142.75 432.296875 C 143.363281 432.296875 143.949219 432.539062 144.382812 432.972656 C 144.8125 433.40625 145.058594 433.992188 145.058594 434.605469 L 145.058594 483.125 C 145.058594 483.738281 144.8125 484.328125 144.382812 484.757812 C 143.949219 485.191406 143.363281 485.433594 142.75 485.433594 L 94.261719 485.433594 C 93.648438 485.433594 93.0625 485.191406 92.628906 484.757812 C 92.195312 484.328125 91.953125 483.738281 91.953125 483.125 L 91.953125 434.605469 C 91.953125 433.992188 92.195312 433.40625 92.628906 432.972656 C 93.0625 432.539062 93.648438 432.296875 94.261719 432.296875 Z M 293.402344 332.664062 L 341.894531 332.664062 C 342.507812 332.664062 343.09375 332.90625 343.523438 333.339844 C 343.957031 333.773438 344.203125 334.359375 344.203125 334.972656 L 344.203125 383.496094 C 344.203125 384.105469 343.957031 384.695312 343.523438 385.125 C 343.09375 385.558594 342.507812 385.800781 341.894531 385.800781 L 293.402344 385.800781 C 292.792969 385.800781 292.203125 385.558594 291.773438 385.125 C 291.339844 384.695312 291.097656 384.105469 291.097656 383.496094 L 291.097656 334.972656 C 291.097656 334.359375 291.339844 333.773438 291.773438 333.339844 C 292.203125 332.90625 292.792969 332.664062 293.402344 332.664062 Z M 293.402344 233.03125 L 341.894531 233.03125 C 342.507812 233.03125 343.09375 233.277344 343.523438 233.707031 C 343.957031 234.140625 344.203125 234.730469 344.203125 235.339844 L 344.203125 283.859375 C 344.203125 284.472656 343.957031 285.058594 343.523438 285.492188 C 343.09375 285.925781 342.507812 286.167969 341.894531 286.167969 L 293.402344 286.167969 C 292.792969 286.167969 292.203125 285.925781 291.773438 285.492188 C 291.339844 285.058594 291.097656 284.472656 291.097656 283.859375 L 291.097656 235.339844 C 291.097656 234.730469 291.339844 234.140625 291.773438 233.707031 C 292.203125 233.277344 292.792969 233.03125 293.402344 233.03125 Z M 392.972656 233.03125 L 441.464844 233.03125 C 442.078125 233.03125 442.664062 233.277344 443.09375 233.707031 C 443.527344 234.140625 443.773438 234.730469 443.773438 235.339844 L 443.773438 283.859375 C 443.773438 284.472656 443.527344 285.058594 443.09375 285.492188 C 442.664062 285.925781 442.078125 286.167969 441.464844 286.167969 L 392.972656 286.167969 C 392.363281 286.167969 391.773438 285.925781 391.34375 285.492188 C 390.910156 285.058594 390.667969 284.472656 390.667969 283.859375 L 390.667969 235.339844 C 390.667969 234.730469 390.910156 234.140625 391.34375 233.707031 C 391.773438 233.277344 392.363281 233.03125 392.972656 233.03125 Z M 392.972656 233.03125 " fill-opacity="1" fill-rule="evenodd"/><path fill="#9bc9ff" d="M 159.675781 239.285156 C 160.886719 235.550781 164.367188 233.023438 168.292969 233.023438 C 172.214844 233.023438 175.695312 235.550781 176.90625 239.285156 C 181.484375 253.378906 186.730469 269.535156 189.539062 278.195312 C 190.753906 281.929688 194.230469 284.457031 198.15625 284.457031 C 207.253906 284.457031 224.234375 284.457031 239.042969 284.457031 C 242.96875 284.457031 246.445312 286.988281 247.660156 290.722656 C 248.871094 294.457031 247.542969 298.546875 244.367188 300.855469 C 232.386719 309.566406 218.652344 319.550781 211.289062 324.902344 C 208.117188 327.210938 206.785156 331.300781 208 335.039062 C 210.8125 343.695312 216.058594 359.855469 220.632812 373.945312 C 221.847656 377.679688 220.519531 381.773438 217.34375 384.082031 C 214.167969 386.386719 209.867188 386.386719 206.691406 384.082031 C 194.710938 375.371094 180.976562 365.386719 173.617188 360.035156 C 170.441406 357.726562 166.140625 357.726562 162.964844 360.035156 C 155.605469 365.386719 141.867188 375.371094 129.890625 384.082031 C 126.714844 386.386719 122.414062 386.386719 119.238281 384.082031 C 116.066406 381.773438 114.734375 377.679688 115.949219 373.945312 C 120.523438 359.855469 125.769531 343.695312 128.582031 335.039062 C 129.796875 331.300781 128.46875 327.210938 125.292969 324.902344 C 117.929688 319.550781 104.195312 309.566406 92.214844 300.855469 C 89.039062 298.546875 87.710938 294.457031 88.925781 290.722656 C 90.136719 286.988281 93.613281 284.457031 97.539062 284.457031 C 112.347656 284.457031 129.324219 284.457031 138.425781 284.457031 C 142.347656 284.457031 145.828125 281.929688 147.039062 278.195312 C 149.851562 269.535156 155.097656 253.378906 159.675781 239.285156 Z M 159.675781 239.285156 " fill-opacity="1" fill-rule="evenodd"/><path fill="#9bc9ff" d="M 349.082031 472.066406 C 401.226562 425.6875 438.820312 360.101562 472.140625 302.355469 C 471.394531 303.644531 470.652344 304.9375 469.90625 306.234375 L 640 601.023438 C 646.695312 601.1875 653.375 601.410156 660.035156 601.652344 C 587.15625 599.101562 511.351562 600.121094 438.648438 627.296875 Z M 473.503906 299.988281 C 478.679688 291.019531 483.757812 282.253906 488.769531 273.785156 C 483.804688 282.246094 478.691406 291.011719 473.503906 299.988281 Z M 438.648438 627.296875 L 520.34375 768.882812 L 505.421875 777.503906 C 481.960938 791.058594 451.734375 782.953125 438.191406 759.480469 L 381.101562 660.539062 Z M 438.648438 627.296875 " fill-opacity="1" fill-rule="evenodd"/><path fill="#9bc9ff" d="M 671.566406 387.578125 C 686.175781 412.894531 677.503906 445.269531 652.203125 459.890625 C 651.464844 460.316406 645.261719 463.898438 644.492188 464.265625 L 591.65625 372.699219 C 592.359375 372.210938 598.5625 368.628906 599.296875 368.203125 C 624.601562 353.582031 656.957031 362.257812 671.566406 387.578125 Z M 671.566406 387.578125 " fill-opacity="1" fill-rule="evenodd"/><g clip-path="url(#aefcc4c3f6)"><path fill="#6699ff" d="M 8.300781 508.453125 L 8.300781 105.199219 C 8.300781 71.796875 35.527344 44.558594 68.90625 44.558594 L 81.613281 44.558594 L 81.613281 29.378906 C 81.613281 15.75 92.71875 4.632812 106.339844 4.632812 L 130.054688 4.632812 C 143.671875 4.632812 154.78125 15.75 154.78125 29.378906 L 154.78125 44.558594 L 214.582031 44.558594 L 214.582031 29.378906 C 214.582031 15.75 225.6875 4.632812 239.308594 4.632812 L 263.019531 4.632812 C 276.640625 4.632812 287.746094 15.75 287.746094 29.378906 L 287.746094 44.558594 L 347.546875 44.558594 L 347.546875 29.378906 C 347.546875 15.75 358.65625 4.632812 372.273438 4.632812 L 395.988281 4.632812 C 409.605469 4.632812 420.71875 15.75 420.71875 29.378906 L 420.71875 44.558594 L 480.515625 44.558594 L 480.515625 29.378906 C 480.515625 15.75 491.621094 4.632812 505.242188 4.632812 L 528.957031 4.632812 C 542.574219 4.632812 553.683594 15.75 553.683594 29.378906 L 553.683594 44.558594 L 566.390625 44.558594 C 599.769531 44.558594 626.996094 71.796875 626.996094 105.199219 L 626.996094 351.046875 C 647.457031 352.972656 666.707031 364.457031 677.765625 383.621094 C 694.164062 412.039062 686.933594 447.621094 662.179688 467.589844 L 712.675781 555.101562 C 720.179688 568.113281 720 583.03125 712.21875 595.839844 C 704.453125 608.625 691.4375 615.660156 676.4375 615.070312 L 676.40625 615.066406 C 670.109375 614.824219 663.785156 614.574219 657.4375 614.34375 C 591.609375 612.082031 523.382812 612.839844 457.421875 634.273438 L 531.402344 762.492188 C 534.929688 768.605469 532.835938 776.417969 526.730469 779.945312 L 511.804688 788.570312 C 482.257812 805.636719 444.191406 795.433594 427.132812 765.867188 L 376.429688 677.996094 L 363.535156 685.441406 C 314.765625 713.613281 251.859375 696.691406 223.742188 647.960938 C 209.457031 623.207031 206.769531 594.773438 213.972656 569.09375 L 68.90625 569.09375 C 35.527344 569.09375 8.300781 541.855469 8.300781 508.453125 Z M 81.613281 70.109375 L 68.90625 70.109375 C 49.589844 70.109375 33.839844 85.871094 33.839844 105.199219 L 33.839844 149.015625 L 601.457031 149.015625 L 601.457031 105.199219 C 601.457031 85.871094 585.703125 70.109375 566.390625 70.109375 L 553.683594 70.109375 L 553.683594 89.996094 C 553.683594 103.621094 542.574219 114.738281 528.957031 114.738281 L 505.242188 114.738281 C 491.625 114.738281 480.515625 103.625 480.515625 89.996094 L 480.515625 70.109375 L 420.71875 70.109375 L 420.71875 89.996094 C 420.71875 103.621094 409.605469 114.738281 395.988281 114.738281 L 372.273438 114.738281 C 358.65625 114.738281 347.546875 103.625 347.546875 89.996094 L 347.546875 70.109375 L 287.746094 70.109375 L 287.746094 89.996094 C 287.746094 103.621094 276.640625 114.738281 263.019531 114.738281 L 239.308594 114.738281 C 225.6875 114.738281 214.582031 103.625 214.582031 89.996094 L 214.582031 70.109375 L 154.78125 70.109375 L 154.78125 89.996094 C 154.78125 103.621094 143.671875 114.738281 130.054688 114.738281 L 106.339844 114.738281 C 92.722656 114.738281 81.613281 103.625 81.613281 89.996094 Z M 601.457031 353.695312 L 601.457031 174.570312 L 33.839844 174.570312 L 33.839844 508.453125 C 33.839844 527.777344 49.589844 543.539062 68.90625 543.539062 L 225.027344 543.539062 C 233.640625 529.289062 245.835938 516.957031 261.199219 508.078125 C 274.59375 500.34375 328.167969 469.390625 341.5625 461.652344 C 390.839844 417.441406 426.707031 355.71875 458.496094 300.492188 C 458.605469 300.28125 458.71875 300.070312 458.835938 299.863281 C 461.675781 294.925781 464.496094 290.042969 467.292969 285.234375 C 470.820312 279.136719 474.304688 273.152344 477.757812 267.316406 C 477.769531 267.300781 477.792969 267.257812 477.792969 267.257812 C 485.296875 254.617188 497.8125 247.535156 512.425781 247.640625 C 527.042969 247.742188 539.511719 254.988281 546.800781 267.625 L 597.296875 355.140625 C 598.675781 354.609375 600.0625 354.128906 601.457031 353.695312 Z M 649.148438 445.007812 C 661.800781 432.476562 664.964844 412.546875 655.648438 396.398438 C 647.316406 381.960938 631.382812 374.65625 615.828125 376.625 C 613.984375 376.859375 612.148438 377.222656 610.328125 377.722656 Z M 677.425781 589.53125 L 677.4375 589.53125 C 682.871094 589.746094 687.582031 587.195312 690.398438 582.5625 C 693.199219 577.949219 693.261719 572.570312 690.554688 567.882812 C 690.554688 567.882812 634.066406 469.976562 634.054688 469.960938 C 634.054688 469.960938 581.164062 378.292969 581.15625 378.277344 L 524.683594 280.402344 C 522.046875 275.835938 517.53125 273.230469 512.25 273.191406 C 506.972656 273.15625 502.472656 275.738281 499.757812 280.292969 L 499.75 280.308594 C 494.839844 288.679688 489.777344 297.347656 484.648438 306.226562 C 484.648438 306.226562 647.488281 588.445312 647.488281 588.445312 C 652.34375 588.59375 657.195312 588.761719 662.03125 588.941406 C 667.175781 589.125 672.308594 589.324219 677.425781 589.53125 Z M 444.386719 611.679688 C 501.402344 592.265625 560.097656 587.746094 617.730469 587.984375 L 469.855469 331.699219 C 440.804688 381.390625 407.839844 434.121094 365.257812 474.542969 Z M 398.546875 665.214844 L 449.25 753.089844 C 459.28125 770.472656 481.660156 776.476562 499.035156 766.4375 L 502.902344 764.203125 L 433.976562 644.75 Z M 344.410156 489.519531 L 273.96875 530.210938 C 237.371094 551.355469 224.761719 598.613281 245.859375 635.183594 C 266.957031 671.75 314.167969 684.453125 350.765625 663.308594 L 421.203125 622.617188 Z M 291.097656 220.253906 L 344.203125 220.253906 C 351.253906 220.253906 356.972656 225.972656 356.972656 233.03125 L 356.972656 286.167969 C 356.972656 293.226562 351.253906 298.945312 344.203125 298.945312 L 291.097656 298.945312 C 284.042969 298.945312 278.328125 293.226562 278.328125 286.167969 L 278.328125 233.03125 C 278.328125 225.972656 284.042969 220.253906 291.097656 220.253906 Z M 303.867188 245.808594 C 303.867188 245.808594 303.867188 273.390625 303.867188 273.390625 L 331.433594 273.390625 C 331.433594 273.390625 331.433594 245.808594 331.433594 245.808594 Z M 191.523438 419.519531 L 244.628906 419.519531 C 251.679688 419.519531 257.398438 425.238281 257.398438 432.296875 L 257.398438 485.433594 C 257.398438 492.492188 251.679688 498.210938 244.628906 498.210938 L 191.523438 498.210938 C 184.472656 498.210938 178.753906 492.492188 178.753906 485.433594 L 178.753906 432.296875 C 178.753906 425.238281 184.472656 419.519531 191.523438 419.519531 Z M 204.292969 445.074219 C 204.292969 445.074219 204.292969 472.65625 204.292969 472.65625 L 231.859375 472.65625 C 231.859375 472.65625 231.859375 445.074219 231.859375 445.074219 Z M 91.953125 419.519531 L 145.058594 419.519531 C 152.109375 419.519531 157.828125 425.238281 157.828125 432.296875 L 157.828125 485.433594 C 157.828125 492.492188 152.109375 498.210938 145.058594 498.210938 L 91.953125 498.210938 C 84.902344 498.210938 79.183594 492.492188 79.183594 485.433594 L 79.183594 432.296875 C 79.183594 425.238281 84.902344 419.519531 91.953125 419.519531 Z M 104.722656 445.074219 C 104.722656 445.074219 104.722656 472.65625 104.722656 472.65625 L 132.289062 472.65625 C 132.289062 472.65625 132.289062 445.074219 132.289062 445.074219 Z M 291.097656 319.886719 L 344.203125 319.886719 C 351.253906 319.886719 356.972656 325.605469 356.972656 332.664062 L 356.972656 385.800781 C 356.972656 392.859375 351.253906 398.582031 344.203125 398.582031 L 291.097656 398.582031 C 284.042969 398.582031 278.328125 392.859375 278.328125 385.800781 L 278.328125 332.664062 C 278.328125 325.605469 284.042969 319.886719 291.097656 319.886719 Z M 303.867188 345.441406 C 303.867188 345.441406 303.867188 373.023438 303.867188 373.023438 L 331.433594 373.023438 C 331.433594 373.023438 331.433594 345.441406 331.433594 345.441406 Z M 390.667969 220.253906 L 443.773438 220.253906 C 450.824219 220.253906 456.542969 225.972656 456.542969 233.03125 L 456.542969 286.167969 C 456.542969 293.226562 450.824219 298.945312 443.773438 298.945312 L 390.667969 298.945312 C 383.617188 298.945312 377.898438 293.226562 377.898438 286.167969 L 377.898438 233.03125 C 377.898438 225.972656 383.617188 220.253906 390.667969 220.253906 Z M 403.4375 245.808594 C 403.4375 245.808594 403.4375 273.390625 403.4375 273.390625 L 431.003906 273.390625 C 431.003906 273.390625 431.003906 245.808594 431.003906 245.808594 Z M 135.726562 271.679688 L 147.53125 235.335938 C 150.453125 226.335938 158.832031 220.242188 168.292969 220.242188 C 177.746094 220.242188 186.128906 226.335938 189.050781 235.335938 L 200.851562 271.679688 L 239.042969 271.679688 C 248.5 271.679688 256.878906 277.773438 259.804688 286.773438 C 262.726562 295.773438 259.523438 305.628906 251.871094 311.195312 L 220.976562 333.652344 L 232.777344 369.996094 C 235.699219 378.996094 232.5 388.855469 224.847656 394.417969 C 217.199219 399.980469 206.835938 399.980469 199.1875 394.417969 L 168.292969 371.957031 L 137.394531 394.417969 C 129.742188 399.980469 119.382812 399.980469 111.734375 394.417969 C 104.082031 388.855469 100.882812 378.996094 103.804688 369.996094 L 115.605469 333.652344 L 84.707031 311.195312 C 77.058594 305.628906 73.855469 295.773438 76.777344 286.773438 C 79.699219 277.773438 88.082031 271.679688 97.539062 271.679688 Z M 108.960938 297.234375 L 132.796875 314.566406 C 140.449219 320.125 143.652344 329.988281 140.726562 338.984375 L 131.621094 367.027344 L 155.460938 349.695312 C 163.113281 344.132812 173.472656 344.132812 181.121094 349.695312 L 204.960938 367.027344 L 195.855469 338.984375 C 192.933594 329.988281 196.132812 320.125 203.785156 314.566406 L 227.621094 297.234375 L 198.15625 297.234375 C 188.699219 297.234375 180.320312 291.140625 177.394531 282.140625 L 168.292969 254.101562 L 159.183594 282.140625 C 156.265625 291.140625 147.882812 297.234375 138.425781 297.234375 Z M 107.152344 30.1875 L 107.152344 89.183594 L 129.242188 89.183594 L 129.242188 30.1875 Z M 506.058594 30.1875 L 506.058594 89.183594 L 528.144531 89.183594 L 528.144531 30.1875 Z M 240.121094 30.1875 L 240.121094 89.183594 L 262.207031 89.183594 L 262.207031 30.1875 Z M 373.085938 30.1875 L 373.085938 89.183594 L 395.179688 89.183594 L 395.179688 30.1875 Z M 663.167969 301.949219 C 661.347656 308.757812 654.339844 312.808594 647.53125 310.984375 C 640.722656 309.15625 636.675781 302.144531 638.5 295.332031 L 651.765625 245.800781 C 653.589844 238.988281 660.597656 234.941406 667.40625 236.765625 C 674.210938 238.589844 678.257812 245.601562 676.433594 252.414062 Z M 734.402344 462.269531 C 727.597656 460.4375 723.558594 453.421875 725.390625 446.613281 C 727.21875 439.800781 734.230469 435.761719 741.035156 437.59375 L 790.574219 450.925781 C 797.378906 452.757812 801.421875 459.773438 799.589844 466.582031 C 797.757812 473.394531 790.746094 477.4375 783.941406 475.605469 Z M 731.945312 367.402344 C 725.84375 370.925781 718.027344 368.832031 714.5 362.722656 C 710.976562 356.617188 713.074219 348.796875 719.175781 345.269531 L 763.640625 319.582031 C 769.742188 316.058594 777.558594 318.152344 781.085938 324.261719 C 784.605469 330.367188 782.511719 338.1875 776.410156 341.714844 Z M 731.945312 367.402344 " fill-opacity="1" fill-rule="evenodd"/></g></svg>